<svg width="46" height="46" viewBox="0 0 46 46" fill="none" xmlns="http://www.w3.org/2000/svg">
<path d="M39.9884 24.5096V18.8354H41.3048C42.0317 18.8354 42.6211 18.2363 42.6211 17.4972V12.2336C42.6211 10.0199 40.8495 8.21893 38.672 8.21893H33.8809C36.0486 4.46109 33.2692 -0.195008 29.0411 0.00630997C27.1575 0.0947434 25.4954 1.15309 24.5934 2.84029L22.6538 6.48962L20.713 2.83734C19.8126 1.15309 18.1505 0.0947434 16.2667 0.00630997C12.039 -0.194115 9.2585 4.45984 11.4269 8.21893H6.90411C4.72658 8.21893 2.95504 10.0199 2.95504 12.2336V17.4973C2.95504 18.2364 3.54438 18.8355 4.27137 18.8355H5.58769V26.9541H1.63871C0.911732 26.9541 0.322388 27.5532 0.322388 28.2923V44.3509C0.322388 45.09 0.911732 45.6891 1.63871 45.6891H6.90411C7.55059 45.6891 8.08718 45.2149 8.19822 44.5902C10.778 45.3089 13.5744 45.6891 16.2996 45.6891H28.0535C30.9289 45.6891 33.6759 44.2976 35.4079 41.9653C35.4347 41.932 44.4398 30.7339 44.4651 30.6996C44.9811 30.0004 45.2538 29.1679 45.2538 28.2923C45.2538 25.5495 42.5771 23.5773 39.9884 24.5096ZM5.58778 33.6451V43.0126H2.95504V29.6304H5.58778V33.6451ZM38.6721 10.8954C39.3979 10.8954 39.9884 11.4957 39.9884 12.2336V16.159H26.7371V10.8953C27.1528 10.8954 38.2696 10.8954 38.6721 10.8954ZM37.3558 18.8355V26.6754L31.8396 32.5057C31.3552 30.8455 29.8418 29.6304 28.0535 29.6304H26.7372V18.8355H37.3558ZM26.9081 4.1153C27.3647 3.26121 28.2075 2.72463 29.1626 2.67975C31.2413 2.58195 32.6846 4.82482 31.671 6.75536C31.1898 7.67173 30.2988 8.21884 29.2876 8.21884C28.736 8.21884 25.241 8.21884 24.7273 8.21884L26.9081 4.1153ZM21.4717 10.8954C22.4517 10.8954 23.1498 10.8954 24.1045 10.8954V29.6304H21.9724C21.804 29.6304 21.6367 29.6176 21.4717 29.5934V10.8954ZM16.0164 2.6768C16.0592 2.6768 16.1022 2.67779 16.1453 2.67984C17.1005 2.72472 17.9433 3.2613 18.3983 4.11253L20.5808 8.21902C18.5358 8.21902 17.3016 8.21902 16.0204 8.21902C15.0091 8.21893 14.1182 7.67191 13.6371 6.75545C12.6446 4.8656 14.0055 2.6768 16.0164 2.6768ZM5.58778 16.159V12.2336C5.58778 11.4957 6.17827 10.8954 6.90411 10.8954C7.00145 10.8954 18.6827 10.8954 18.8391 10.8954V16.1591H5.58778V16.159ZM18.839 18.8355V28.0922C17.296 27.0017 15.4466 26.4086 13.5297 26.4086C11.6128 26.4086 9.76331 27.0017 8.22043 28.0922V18.8355H18.839ZM42.3727 29.0749L33.3529 40.2923C33.3413 40.3067 33.33 40.3214 33.3189 40.3363C32.0825 42.0122 30.1141 43.0128 28.0535 43.0128H16.2997C13.319 43.0128 10.8598 42.5725 8.22052 41.8183V33.6453V31.5738L9.1378 30.7531C11.6416 28.5131 15.4178 28.5131 17.9217 30.7531C19.0471 31.7599 20.4977 32.307 21.9724 32.307H28.0535C28.7794 32.307 29.3699 32.9073 29.3699 33.6452C29.3699 34.3831 28.7794 34.9834 28.0535 34.9834H18.6981C17.9711 34.9834 17.3818 35.5825 17.3818 36.3216C17.3818 37.0606 17.9711 37.6598 18.6981 37.6598H28.9358C30.0238 37.6598 31.0734 37.1972 31.8173 36.3903C32.1484 36.0403 40.0456 27.6931 40.3267 27.396C40.3291 27.3935 40.331 27.3907 40.3334 27.3882C40.3359 27.3855 40.3388 27.3832 40.3412 27.3805C41.1489 26.4989 42.6212 27.0752 42.6212 28.2923C42.6212 28.5764 42.5353 28.8465 42.3727 29.0749Z" fill="black"/>
</svg>
