<svg width="39" height="46" viewBox="0 0 39 46" fill="none" xmlns="http://www.w3.org/2000/svg">
<path d="M18.9326 0.792903L18.9326 0.792875C19.2394 0.663437 19.584 0.66344 19.8911 0.792903C19.8911 0.79291 19.8911 0.792916 19.8912 0.792923L37.1056 8.05291C37.5728 8.24997 37.8829 8.71649 37.8829 9.24009V18.0656C37.8829 30.0193 30.7703 40.766 19.8842 45.2794C19.5812 45.405 19.2423 45.405 18.9395 45.2794C8.05321 40.7659 0.940796 30.0192 0.940796 18.0656V9.24009C0.940796 8.71653 1.25094 8.24999 1.71811 8.05291C1.71812 8.05291 1.71813 8.0529 1.71814 8.0529L18.9326 0.792903ZM19.2076 42.6076L19.4118 42.699L19.6161 42.6076C29.2867 38.2798 35.3697 28.5876 35.3697 18.0656V10.4313V10.0995L35.064 9.97058L19.6061 3.45132L19.4118 3.36937L19.2175 3.45132L3.75965 9.97058L3.45395 10.0995V10.4313V18.0656C3.45395 28.8737 9.79593 38.3956 19.2076 42.6076ZM17.114 24.4307L17.4703 24.7926L17.8266 24.4307L25.3767 16.7616C25.8668 16.2638 26.6581 16.2637 27.1483 16.7616C27.6427 17.2638 27.6426 18.0812 27.1482 18.5833L27.1482 18.5834L18.3561 27.5142C17.8659 28.0121 17.0746 28.0119 16.5845 27.5142L11.6754 22.5276C11.181 22.0254 11.181 21.208 11.6754 20.7059C12.1656 20.208 12.9569 20.208 13.4469 20.7058L13.447 20.7058L17.114 24.4307Z" fill="black" stroke="black"/>
</svg>
