<svg width="63" height="64" viewBox="0 0 63 64" fill="none" xmlns="http://www.w3.org/2000/svg">
<g clip-path="url(#clip0)">
<path d="M14.6776 42.0996C11.2085 42.0996 8.38725 44.9677 8.38725 48.4945C8.38725 52.0213 11.2085 54.8894 14.6776 54.8894C18.1468 54.8894 20.9681 52.0213 20.9681 48.4945C20.9681 44.9677 18.1467 42.0996 14.6776 42.0996ZM14.6776 52.7577C12.3648 52.7577 10.4841 50.8456 10.4841 48.4945C10.4841 46.1433 12.3649 44.2313 14.6776 44.2313C16.9904 44.2313 18.8712 46.1434 18.8712 48.4945C18.8712 50.8456 16.9904 52.7577 14.6776 52.7577Z" fill="black"/>
<path d="M50.3232 42.0996C46.854 42.0996 44.0328 44.9677 44.0328 48.4945C44.0328 52.0213 46.854 54.8894 50.3232 54.8894C53.7924 54.8894 56.6136 52.0213 56.6136 48.4945C56.6136 44.9677 53.7924 42.0996 50.3232 42.0996ZM50.3232 52.7577C48.0104 52.7577 46.1296 50.8456 46.1296 48.4945C46.1296 46.1433 48.0105 44.2313 50.3232 44.2313C52.636 44.2313 54.5168 46.1434 54.5168 48.4945C54.5168 50.8456 52.636 52.7577 50.3232 52.7577Z" fill="black"/>
<path d="M62.7373 36.1939L53.3017 21.2724C53.1088 20.9676 52.7765 20.7832 52.4199 20.7832H40.8876C40.3078 20.7832 39.8392 21.2607 39.8392 21.849V48.4943C39.8392 49.0837 40.3078 49.5601 40.8876 49.5601H45.0812V47.4284H41.936V22.9149H51.8475L60.8072 37.0838V47.4287H55.5651V49.5602H61.8555C62.4353 49.5602 62.9039 49.0838 62.9039 48.4944V36.7704C62.904 36.5668 62.8464 36.3654 62.7373 36.1939Z" fill="black"/>
<path d="M46.1296 34.6387V27.1781H54.5169V25.0464H45.0813C44.5015 25.0464 44.0329 25.5239 44.0329 26.1122V35.7045C44.0329 36.2939 44.5015 36.7703 45.0813 36.7703H60.8073V34.6386H46.1296V34.6387Z" fill="black"/>
<path d="M40.8876 13.3228H1.04836C0.469691 13.3228 0 13.8002 0 14.3885V48.4947C0 49.0841 0.469691 49.5604 1.04836 49.5604H9.4356V47.4288H2.09684V15.4543H39.8392V47.4288H19.9196V49.5604H40.8876C41.4674 49.5604 41.936 49.0841 41.936 48.4947V14.3885C41.936 13.8002 41.4674 13.3228 40.8876 13.3228Z" fill="black"/>
<path d="M7.34036 43.1655H1.04996V45.2981H7.34036V43.1655Z" fill="black"/>
<path d="M39.8392 43.1655H22.0164V45.2981H39.8392V43.1655Z" fill="black"/>
<path d="M61.8555 43.1655H57.662V45.2981H61.8555V43.1655Z" fill="black"/>
<path d="M40.8876 17.5859H4.19356V19.7185H40.8876V17.5859Z" fill="black"/>
<path d="M15.726 47.4287H13.6292V49.5613H15.726V47.4287Z" fill="black"/>
<path d="M51.3717 47.4287H49.2748V49.5613H51.3717V47.4287Z" fill="black"/>
<path d="M18.8712 9.05957H4.19356V11.1922H18.8712V9.05957Z" fill="black"/>
<path d="M2.09684 9.05957H0V11.1922H2.09684V9.05957Z" fill="black"/>
</g>
<defs>
<clipPath id="clip0">
<rect width="62.904" height="63.9489" fill="white"/>
</clipPath>
</defs>
</svg>
